<mxfile host="app.diagrams.net" modified="2023-10-14T16:02:29.475Z" agent="Mozilla/5.0 (Windows NT 10.0; Win64; x64) AppleWebKit/537.36 (KHTML, like Gecko) Chrome/118.0.0.0 Safari/537.36" version="22.0.4" etag="gPh6M6LVJi9q0m8x4VR6" type="github">
  <diagram name="Page-1" id="cf15v146sgi-ExDUlV-A">
    <mxGraphModel>
      <root>
        <mxCell id="0" />
        <mxCell id="1" parent="0" />
      </root>
    </mxGraphModel>
  </diagram>
</mxfile>
